# Blender v2.78 (sub 0) OBJ File: ''
# www.blender.org
mtllib leg.mtl
o leg
v -0.877460 0.016070 0.100000
v -0.874961 0.012500 0.100000
v -0.016070 -0.019151 0.100000
v -0.008551 -0.023492 0.100000
v -0.871991 0.004341 0.100000
v -0.004341 -0.024620 0.100000
v -0.871611 -0.000000 0.100000
v 0.000000 -0.025000 0.100000
v -0.873119 0.008551 0.100000
v -0.012500 -0.021651 0.100000
v -0.021651 0.012500 0.100000
v -0.019151 0.016070 0.100000
v -0.896611 0.050000 0.100000
v -0.016070 0.019151 0.100000
v 0.000000 0.050000 0.100000
v -0.012500 0.021651 0.100000
v -0.008551 0.023492 0.100000
v -0.888061 0.023492 0.100000
v -0.884111 0.021651 0.100000
v -0.880542 0.019151 0.100000
v -0.019151 -0.016070 0.100000
v -0.896611 0.025000 0.100000
v -0.892270 0.024620 0.100000
v -0.871991 -0.004341 0.100000
v 0.000000 -0.050000 0.100000
v 0.004341 -0.024620 0.100000
v 0.008682 -0.049240 0.100000
v 0.008551 -0.023492 0.100000
v 0.017101 -0.046985 0.100000
v 0.012500 -0.021651 0.100000
v 0.025000 -0.043301 0.100000
v 0.016070 -0.019151 0.100000
v 0.032139 -0.038302 0.100000
v 0.019151 -0.016070 0.100000
v 0.038302 -0.032139 0.100000
v 0.021651 -0.012500 0.100000
v 0.043301 -0.025000 0.100000
v 0.023492 -0.008551 0.100000
v 0.046985 -0.017101 0.100000
v 0.024620 -0.004341 0.100000
v 0.049240 -0.008682 0.100000
v 0.025000 0.000000 0.100000
v 0.050000 0.000000 0.100000
v 0.024620 0.004341 0.100000
v 0.049240 0.008682 0.100000
v 0.023492 0.008551 0.100000
v 0.046985 0.017101 0.100000
v 0.021651 0.012500 0.100000
v 0.043301 0.025000 0.100000
v 0.019151 0.016070 0.100000
v 0.038302 0.032139 0.100000
v 0.016070 0.019151 0.100000
v 0.032139 0.038302 0.100000
v 0.012500 0.021651 0.100000
v 0.025000 0.043301 0.100000
v 0.008551 0.023492 0.100000
v 0.017101 0.046985 0.100000
v 0.004341 0.024620 0.100000
v 0.008682 0.049240 0.100000
v 0.000000 0.025000 0.100000
v -0.004341 0.024620 0.100000
v -0.921611 -0.000000 0.100000
v -0.921232 0.004341 0.100000
v -1.654717 -0.380004 0.100000
v -0.920104 0.008551 0.100000
v -0.921613 0.043300 0.100000
v -0.918262 0.012500 0.100000
v -0.915762 0.016070 0.100000
v -0.021651 -0.012500 0.100000
v -0.023492 -0.008551 0.100000
v -0.024620 -0.004341 0.100000
v -0.025000 0.000000 0.100000
v -0.024620 0.004341 0.100000
v -0.023492 0.008551 0.100000
v -0.873119 -0.008551 0.100000
v -0.874961 -0.012500 0.100000
v -0.880533 -0.050000 0.100000
v -0.877460 -0.016070 0.100000
v -0.880542 -0.019151 0.100000
v -1.679715 -0.423306 0.100000
v -1.678954 -0.431988 0.100000
v -1.676698 -0.440407 0.100000
v -1.673015 -0.448306 0.100000
v -0.884111 -0.021651 0.100000
v -0.888061 -0.023492 0.100000
v -0.881838 -0.050086 0.100000
v -0.883121 -0.050341 0.100000
v -1.604712 -0.466604 0.100000
v -0.909111 -0.021651 0.100000
v -0.912681 -0.019151 0.100000
v -1.668015 -0.455445 0.100000
v -0.915762 -0.016070 0.100000
v -0.918262 -0.012500 0.100000
v -0.920104 -0.008551 0.100000
v -0.921232 -0.004341 0.100000
v -0.912681 0.019151 0.100000
v -0.909111 0.021651 0.100000
v -0.915747 0.046193 0.100000
v -0.905162 0.023492 0.100000
v -0.909554 0.048296 0.100000
v -0.900953 0.024620 0.100000
v -0.903138 0.049572 0.100000
v -0.884360 -0.050761 0.100000
v -0.892270 -0.024620 0.100000
v -0.885533 -0.051340 0.100000
v -0.896611 -0.025000 0.100000
v -0.900953 -0.024620 0.100000
v -0.905162 -0.023492 0.100000
v -1.673017 -0.398306 0.100000
v -1.668018 -0.391166 0.100000
v -1.661856 -0.385003 0.100000
v -1.676700 -0.406205 0.100000
v -1.678955 -0.414624 0.100000
v -1.661852 -0.461607 0.100000
v -1.621030 -0.472544 0.100000
v -1.612611 -0.470288 0.100000
v -1.638395 -0.472545 0.100000
v -1.629712 -0.473304 0.100000
v -1.646813 -0.470289 0.100000
v -1.654712 -0.466606 0.100000
v -0.921232 0.004341 0.000000
v -0.921611 -0.000000 0.000000
v -1.654717 -0.380004 0.000000
v -0.024620 -0.004341 0.000000
v -0.023492 -0.008551 0.000000
v -0.896611 -0.025000 0.000000
v -0.019151 0.016070 0.000000
v -0.021651 0.012500 0.000000
v -0.896611 0.050000 0.000000
v -0.023492 0.008551 0.000000
v -0.024620 0.004341 0.000000
v -0.915762 0.016070 0.000000
v -0.918262 0.012500 0.000000
v -0.921613 0.043300 0.000000
v -1.661852 -0.461607 0.000000
v -1.668015 -0.455445 0.000000
v -1.621030 -0.472544 0.000000
v -0.873119 0.008551 0.000000
v -0.874961 0.012500 0.000000
v -1.612611 -0.470288 0.000000
v -1.676698 -0.440407 0.000000
v -1.678954 -0.431988 0.000000
v -1.604712 -0.466604 0.000000
v -1.679715 -0.423306 0.000000
v -1.678955 -0.414624 0.000000
v -0.921232 -0.004341 0.000000
v -0.920104 -0.008551 0.000000
v -0.918262 -0.012500 0.000000
v -0.915762 -0.016070 0.000000
v -0.920104 0.008551 0.000000
v -1.629712 -0.473304 0.000000
v -1.638395 -0.472545 0.000000
v -1.646813 -0.470289 0.000000
v -1.673015 -0.448306 0.000000
v -1.676700 -0.406205 0.000000
v -1.673017 -0.398306 0.000000
v -1.668018 -0.391166 0.000000
v -0.877460 -0.016070 0.000000
v -0.874961 -0.012500 0.000000
v -0.025000 0.000000 0.000000
v -0.873119 -0.008551 0.000000
v -0.871991 -0.004341 0.000000
v -0.871611 -0.000000 0.000000
v -0.871991 0.004341 0.000000
v -1.661856 -0.385003 0.000000
v -0.912681 -0.019151 0.000000
v -0.909111 -0.021651 0.000000
v -0.885533 -0.051340 0.000000
v -0.880533 -0.050000 0.000000
v -0.881838 -0.050086 0.000000
v -1.654712 -0.466606 0.000000
v -0.905162 -0.023492 0.000000
v -0.900953 -0.024620 0.000000
v -0.884360 -0.050761 0.000000
v -0.883121 -0.050341 0.000000
v -0.004341 0.024620 0.000000
v -0.008551 0.023492 0.000000
v 0.000000 0.050000 0.000000
v -0.012500 0.021651 0.000000
v -0.016070 0.019151 0.000000
v -0.888061 -0.023492 0.000000
v -0.884111 -0.021651 0.000000
v -0.880542 -0.019151 0.000000
v -0.877460 0.016070 0.000000
v -0.880542 0.019151 0.000000
v -0.884111 0.021651 0.000000
v -0.888061 0.023492 0.000000
v -0.905162 0.023492 0.000000
v -0.909111 0.021651 0.000000
v -0.912681 0.019151 0.000000
v -0.021651 -0.012500 0.000000
v -0.019151 -0.016070 0.000000
v -0.016070 -0.019151 0.000000
v 0.000000 -0.050000 0.000000
v -0.012500 -0.021651 0.000000
v -0.008551 -0.023492 0.000000
v -0.892270 -0.024620 0.000000
v -0.004341 -0.024620 0.000000
v 0.000000 -0.025000 0.000000
v 0.008682 -0.049240 0.000000
v 0.004341 -0.024620 0.000000
v 0.017101 -0.046985 0.000000
v 0.008551 -0.023492 0.000000
v 0.025000 -0.043301 0.000000
v 0.012500 -0.021651 0.000000
v 0.032139 -0.038302 0.000000
v 0.016070 -0.019151 0.000000
v 0.038302 -0.032139 0.000000
v 0.019151 -0.016070 0.000000
v 0.043301 -0.025000 0.000000
v 0.021651 -0.012500 0.000000
v 0.046985 -0.017101 0.000000
v 0.023492 -0.008551 0.000000
v 0.049240 -0.008682 0.000000
v 0.024620 -0.004341 0.000000
v 0.050000 0.000000 0.000000
v 0.025000 0.000000 0.000000
v 0.049240 0.008682 0.000000
v 0.024620 0.004341 0.000000
v 0.046985 0.017101 0.000000
v 0.023492 0.008551 0.000000
v 0.043301 0.025000 0.000000
v 0.021651 0.012500 0.000000
v 0.038302 0.032139 0.000000
v 0.019151 0.016070 0.000000
v 0.032139 0.038302 0.000000
v 0.016070 0.019151 0.000000
v 0.025000 0.043301 0.000000
v 0.012500 0.021651 0.000000
v 0.017101 0.046985 0.000000
v 0.008551 0.023492 0.000000
v 0.008682 0.049240 0.000000
v 0.004341 0.024620 0.000000
v 0.000000 0.025000 0.000000
v -0.892270 0.024620 0.000000
v -0.896611 0.025000 0.000000
v -0.903138 0.049572 0.000000
v -0.900953 0.024620 0.000000
v -0.909554 0.048296 0.000000
v -0.915747 0.046193 0.000000
v 0.000000 -0.050000 0.000000
v 0.000000 -0.050000 0.100000
v 0.050000 0.000000 0.000000
v 0.050000 0.000000 0.100000
v 0.000000 0.050000 0.000000
v 0.000000 0.050000 0.100000
v -0.896611 0.050000 0.000000
v 0.000000 0.050000 0.000000
v -1.654717 -0.380004 -0.000000
v -0.921613 0.043300 -0.000000
v -0.921611 -0.000000 0.100000
v -0.921611 -0.000000 0.000000
v -0.871611 -0.000000 0.100000
v -0.871611 -0.000000 0.000000
v -0.025000 -0.000000 0.100000
v -0.025000 -0.000000 0.000000
v -0.000000 0.025000 0.100000
v -0.000000 0.025000 0.000000
v 0.025000 0.000000 0.100000
v 0.025000 0.000000 0.000000
v 0.000000 -0.025000 0.100000
v 0.000000 -0.025000 0.000000
vn -0.0000 0.0000 1.0000
vn 0.0000 0.0000 -1.0000
vn 0.4423 -0.8968 0.0000
vn 0.4423 -0.8969 0.0000
vn 0.3215 -0.9469 0.0000
vn 0.1951 -0.9808 0.0000
vn 0.0654 -0.9979 0.0000
vn 0.0000 -1.0000 0.0000
vn 0.0872 -0.9962 0.0000
vn 0.2588 -0.9659 0.0000
vn 0.4226 -0.9063 0.0000
vn 0.5736 -0.8192 0.0000
vn 0.7071 -0.7071 0.0000
vn 0.8192 -0.5736 0.0000
vn 0.9063 -0.4226 0.0000
vn 0.9659 -0.2588 0.0000
vn 0.9962 -0.0872 0.0000
vn 0.9962 0.0872 0.0000
vn 0.9659 0.2588 0.0000
vn 0.9063 0.4226 0.0000
vn 0.8192 0.5736 0.0000
vn 0.7071 0.7071 0.0000
vn 0.5736 0.8192 0.0000
vn 0.4226 0.9063 0.0000
vn 0.2588 0.9659 0.0000
vn 0.0872 0.9962 0.0000
vn 0.0000 1.0000 0.0000
vn -0.0654 0.9979 0.0000
vn -0.1951 0.9808 0.0000
vn -0.3215 0.9469 0.0000
vn -0.4423 0.8969 0.0000
vn -0.5000 0.8660 0.0000
vn -0.5736 0.8191 0.0000
vn -0.7071 0.7071 0.0000
vn -0.8192 0.5735 0.0000
vn -0.9063 0.4226 0.0000
vn -0.9063 0.4225 0.0000
vn -0.9659 0.2588 0.0000
vn -0.9962 0.0871 0.0000
vn -0.9962 -0.0872 0.0000
vn -0.9659 -0.2589 0.0000
vn -0.9063 -0.4227 0.0000
vn -0.9063 -0.4226 0.0000
vn -0.8191 -0.5736 0.0000
vn -0.7071 -0.7071 0.0000
vn -0.5735 -0.8192 0.0000
vn -0.4226 -0.9063 0.0000
vn -0.2588 -0.9659 0.0000
vn -0.0871 -0.9962 0.0000
vn 0.2589 -0.9659 0.0000
vn 0.4227 -0.9063 0.0000
vn 0.5000 -0.8660 0.0000
vn 0.9962 -0.0871 0.0000
vn 0.8191 -0.5736 0.0000
vn -0.0872 -0.9962 0.0000
vn -0.5736 -0.8192 0.0000
vn -0.8192 -0.5736 0.0000
vn -0.9659 -0.2588 0.0000
vn -0.9962 -0.0871 0.0000
vn -0.9962 0.0872 0.0000
vn -0.8192 0.5736 0.0000
vn -0.5736 0.8192 0.0000
vn -0.4226 0.9063 0.0000
vn -0.2588 0.9659 0.0000
vn -0.0872 0.9962 0.0000
vn 0.8191 0.5736 0.0000
vn 0.9962 0.0871 0.0000
usemtl None
s off
f 1//1 2//1 3//1
f 4//1 5//1 6//1
f 6//1 5//1 7//1
f 6//1 7//1 8//1
f 2//1 9//1 3//1
f 3//1 9//1 5//1
f 3//1 5//1 10//1
f 10//1 5//1 4//1
f 11//1 12//1 13//1
f 13//1 12//1 14//1
f 13//1 14//1 15//1
f 15//1 14//1 16//1
f 15//1 16//1 17//1
f 18//1 19//1 3//1
f 3//1 19//1 20//1
f 3//1 20//1 1//1
f 21//1 22//1 3//1
f 3//1 22//1 23//1
f 3//1 23//1 18//1
f 7//1 24//1 8//1
f 8//1 24//1 25//1
f 8//1 25//1 26//1
f 26//1 25//1 27//1
f 26//1 27//1 28//1
f 28//1 27//1 29//1
f 28//1 29//1 30//1
f 30//1 29//1 31//1
f 30//1 31//1 32//1
f 32//1 31//1 33//1
f 32//1 33//1 34//1
f 34//1 33//1 35//1
f 34//1 35//1 36//1
f 36//1 35//1 37//1
f 36//1 37//1 38//1
f 38//1 37//1 39//1
f 38//1 39//1 40//1
f 40//1 39//1 41//1
f 40//1 41//1 42//1
f 42//1 41//1 43//1
f 42//1 43//1 44//1
f 44//1 43//1 45//1
f 44//1 45//1 46//1
f 46//1 45//1 47//1
f 46//1 47//1 48//1
f 48//1 47//1 49//1
f 48//1 49//1 50//1
f 50//1 49//1 51//1
f 50//1 51//1 52//1
f 52//1 51//1 53//1
f 52//1 53//1 54//1
f 54//1 53//1 55//1
f 54//1 55//1 56//1
f 56//1 55//1 57//1
f 56//1 57//1 58//1
f 58//1 57//1 59//1
f 58//1 59//1 60//1
f 60//1 59//1 15//1
f 60//1 15//1 61//1
f 61//1 15//1 17//1
f 62//1 63//1 64//1
f 64//1 63//1 65//1
f 64//1 65//1 66//1
f 66//1 65//1 67//1
f 66//1 67//1 68//1
f 21//1 69//1 22//1
f 22//1 69//1 70//1
f 22//1 70//1 71//1
f 72//1 73//1 13//1
f 13//1 73//1 74//1
f 13//1 74//1 11//1
f 24//1 75//1 25//1
f 25//1 75//1 76//1
f 25//1 76//1 77//1
f 77//1 76//1 78//1
f 77//1 78//1 79//1
f 80//1 81//1 64//1
f 64//1 81//1 82//1
f 64//1 82//1 83//1
f 79//1 84//1 77//1
f 77//1 84//1 85//1
f 77//1 85//1 86//1
f 86//1 85//1 87//1
f 88//1 89//1 90//1
f 88//1 83//1 91//1
f 90//1 92//1 88//1
f 88//1 92//1 93//1
f 88//1 93//1 83//1
f 83//1 93//1 94//1
f 83//1 94//1 64//1
f 64//1 94//1 95//1
f 64//1 95//1 62//1
f 68//1 96//1 66//1
f 66//1 96//1 97//1
f 66//1 97//1 98//1
f 98//1 97//1 99//1
f 98//1 99//1 100//1
f 100//1 99//1 101//1
f 71//1 72//1 22//1
f 22//1 72//1 13//1
f 22//1 13//1 101//1
f 101//1 13//1 102//1
f 101//1 102//1 100//1
f 87//1 85//1 103//1
f 103//1 85//1 104//1
f 103//1 104//1 105//1
f 104//1 106//1 105//1
f 105//1 106//1 107//1
f 105//1 107//1 88//1
f 88//1 107//1 108//1
f 88//1 108//1 89//1
f 109//1 64//1 110//1
f 110//1 64//1 111//1
f 109//1 112//1 64//1
f 64//1 112//1 113//1
f 64//1 113//1 80//1
f 114//1 115//1 91//1
f 91//1 115//1 116//1
f 91//1 116//1 88//1
f 117//1 118//1 119//1
f 119//1 118//1 115//1
f 119//1 115//1 120//1
f 120//1 115//1 114//1
f 121//2 122//2 123//2
f 124//2 125//2 126//2
f 127//2 128//2 129//2
f 129//2 128//2 130//2
f 129//2 130//2 131//2
f 132//2 133//2 134//2
f 135//2 136//2 137//2
f 138//2 139//2 131//2
f 137//2 136//2 140//2
f 141//2 142//2 143//2
f 143//2 142//2 144//2
f 143//2 144//2 145//2
f 146//2 147//2 143//2
f 143//2 147//2 148//2
f 143//2 148//2 149//2
f 134//2 133//2 123//2
f 123//2 133//2 150//2
f 123//2 150//2 121//2
f 151//2 152//2 153//2
f 140//2 136//2 143//2
f 143//2 136//2 154//2
f 143//2 154//2 141//2
f 145//2 155//2 143//2
f 143//2 155//2 156//2
f 143//2 156//2 157//2
f 158//2 159//2 160//2
f 160//2 159//2 161//2
f 161//2 162//2 160//2
f 160//2 162//2 163//2
f 160//2 163//2 131//2
f 131//2 163//2 164//2
f 131//2 164//2 138//2
f 122//2 146//2 123//2
f 123//2 146//2 143//2
f 123//2 143//2 165//2
f 165//2 143//2 157//2
f 149//2 166//2 143//2
f 143//2 166//2 167//2
f 143//2 167//2 168//2
f 169//2 170//2 126//2
f 151//2 153//2 137//2
f 137//2 153//2 171//2
f 137//2 171//2 135//2
f 167//2 172//2 168//2
f 168//2 172//2 173//2
f 168//2 173//2 174//2
f 174//2 173//2 126//2
f 174//2 126//2 175//2
f 175//2 126//2 170//2
f 176//2 177//2 178//2
f 178//2 177//2 179//2
f 178//2 179//2 129//2
f 129//2 179//2 180//2
f 129//2 180//2 127//2
f 181//2 182//2 160//2
f 160//2 182//2 183//2
f 160//2 183//2 158//2
f 139//2 184//2 131//2
f 131//2 184//2 185//2
f 131//2 185//2 129//2
f 129//2 185//2 186//2
f 129//2 186//2 187//2
f 188//2 189//2 134//2
f 134//2 189//2 190//2
f 134//2 190//2 132//2
f 125//2 191//2 126//2
f 126//2 191//2 192//2
f 126//2 192//2 169//2
f 169//2 192//2 193//2
f 169//2 193//2 194//2
f 194//2 193//2 195//2
f 194//2 195//2 196//2
f 124//2 126//2 160//2
f 160//2 126//2 197//2
f 160//2 197//2 181//2
f 196//2 198//2 194//2
f 194//2 198//2 199//2
f 194//2 199//2 200//2
f 200//2 199//2 201//2
f 200//2 201//2 202//2
f 202//2 201//2 203//2
f 202//2 203//2 204//2
f 204//2 203//2 205//2
f 204//2 205//2 206//2
f 206//2 205//2 207//2
f 206//2 207//2 208//2
f 208//2 207//2 209//2
f 208//2 209//2 210//2
f 210//2 209//2 211//2
f 210//2 211//2 212//2
f 212//2 211//2 213//2
f 212//2 213//2 214//2
f 214//2 213//2 215//2
f 214//2 215//2 216//2
f 216//2 215//2 217//2
f 216//2 217//2 218//2
f 218//2 217//2 219//2
f 218//2 219//2 220//2
f 220//2 219//2 221//2
f 220//2 221//2 222//2
f 222//2 221//2 223//2
f 222//2 223//2 224//2
f 224//2 223//2 225//2
f 224//2 225//2 226//2
f 226//2 225//2 227//2
f 226//2 227//2 228//2
f 228//2 227//2 229//2
f 228//2 229//2 230//2
f 230//2 229//2 231//2
f 230//2 231//2 232//2
f 232//2 231//2 233//2
f 232//2 233//2 178//2
f 178//2 233//2 234//2
f 178//2 234//2 176//2
f 187//2 235//2 129//2
f 129//2 235//2 236//2
f 129//2 236//2 237//2
f 237//2 236//2 238//2
f 237//2 238//2 239//2
f 239//2 238//2 188//2
f 239//2 188//2 240//2
f 240//2 188//2 134//2
f 105//3 168//3 103//3
f 103//4 168//4 174//4
f 103//5 174//5 87//5
f 87//5 174//5 175//5
f 87//6 175//6 86//6
f 86//6 175//6 170//6
f 86//7 170//7 77//7
f 77//7 170//7 169//7
f 25//8 77//8 241//8
f 241//8 77//8 169//8
f 242//9 241//9 200//9
f 242//9 200//9 27//9
f 27//10 200//10 202//10
f 27//10 202//10 29//10
f 29//11 202//11 204//11
f 29//11 204//11 31//11
f 31//12 204//12 206//12
f 31//12 206//12 33//12
f 33//13 206//13 208//13
f 33//13 208//13 35//13
f 35//14 208//14 210//14
f 35//14 210//14 37//14
f 37//15 210//15 212//15
f 37//15 212//15 39//15
f 39//16 212//16 214//16
f 39//16 214//16 41//16
f 41//17 214//17 243//17
f 41//17 243//17 244//17
f 244//18 243//18 218//18
f 244//18 218//18 45//18
f 45//19 218//19 220//19
f 45//19 220//19 47//19
f 47//20 220//20 222//20
f 47//20 222//20 49//20
f 49//21 222//21 224//21
f 49//21 224//21 51//21
f 51//22 224//22 226//22
f 51//22 226//22 53//22
f 53//23 226//23 228//23
f 53//23 228//23 55//23
f 55//24 228//24 230//24
f 55//24 230//24 57//24
f 57//25 230//25 232//25
f 57//25 232//25 59//25
f 59//26 232//26 245//26
f 59//26 245//26 246//26
f 13//27 246//27 247//27
f 247//27 246//27 248//27
f 13//28 129//28 237//28
f 13//28 237//28 102//28
f 102//29 237//29 239//29
f 102//29 239//29 100//29
f 100//30 239//30 240//30
f 100//30 240//30 98//30
f 98//31 240//31 134//31
f 98//31 134//31 66//31
f 64//32 66//32 249//32
f 249//32 66//32 250//32
f 64//33 123//33 165//33
f 64//33 165//33 111//33
f 111//34 165//34 157//34
f 111//34 157//34 110//34
f 110//35 157//35 156//35
f 110//35 156//35 109//35
f 109//36 156//36 155//36
f 109//37 155//37 112//37
f 112//38 155//38 145//38
f 112//38 145//38 113//38
f 113//39 145//39 144//39
f 113//39 144//39 80//39
f 80//40 144//40 142//40
f 80//40 142//40 81//40
f 81//41 142//41 141//41
f 81//41 141//41 82//41
f 82//42 141//42 154//42
f 82//43 154//43 83//43
f 83//44 154//44 136//44
f 83//44 136//44 91//44
f 91//45 136//45 135//45
f 91//45 135//45 114//45
f 114//46 135//46 171//46
f 114//46 171//46 120//46
f 120//47 171//47 153//47
f 120//47 153//47 119//47
f 119//48 153//48 152//48
f 119//48 152//48 117//48
f 117//49 152//49 151//49
f 117//49 151//49 118//49
f 118//9 151//9 137//9
f 118//9 137//9 115//9
f 115//50 137//50 140//50
f 115//50 140//50 116//50
f 116//51 140//51 143//51
f 116//51 143//51 88//51
f 105//52 88//52 168//52
f 168//52 88//52 143//52
f 251//53 252//53 63//53
f 63//17 252//17 121//17
f 63//16 121//16 65//16
f 65//16 121//16 150//16
f 65//15 150//15 67//15
f 67//15 150//15 133//15
f 67//14 133//14 68//14
f 68//54 133//54 132//54
f 68//13 132//13 96//13
f 96//13 132//13 190//13
f 96//12 190//12 97//12
f 97//12 190//12 189//12
f 97//11 189//11 99//11
f 99//11 189//11 188//11
f 99//10 188//10 101//10
f 101//10 188//10 238//10
f 101//9 238//9 22//9
f 22//9 238//9 236//9
f 22//55 236//55 23//55
f 23//55 236//55 235//55
f 23//48 235//48 18//48
f 18//48 235//48 187//48
f 18//47 187//47 19//47
f 19//47 187//47 186//47
f 19//56 186//56 20//56
f 20//56 186//56 185//56
f 20//45 185//45 1//45
f 1//45 185//45 184//45
f 1//57 184//57 2//57
f 2//57 184//57 139//57
f 2//43 139//43 9//43
f 9//43 139//43 138//43
f 9//58 138//58 5//58
f 5//58 138//58 164//58
f 5//40 164//40 253//40
f 253//59 164//59 254//59
f 253//39 254//39 24//39
f 24//60 254//60 162//60
f 24//38 162//38 75//38
f 75//38 162//38 161//38
f 75//36 161//36 76//36
f 76//36 161//36 159//36
f 76//61 159//61 78//61
f 78//61 159//61 158//61
f 78//34 158//34 79//34
f 79//34 158//34 183//34
f 79//62 183//62 84//62
f 84//62 183//62 182//62
f 84//63 182//63 85//63
f 85//63 182//63 181//63
f 85//64 181//64 104//64
f 104//64 181//64 197//64
f 104//65 197//65 106//65
f 106//65 197//65 126//65
f 106//26 126//26 107//26
f 107//26 126//26 173//26
f 107//25 173//25 108//25
f 108//25 173//25 172//25
f 108//24 172//24 89//24
f 89//24 172//24 167//24
f 89//23 167//23 90//23
f 90//23 167//23 166//23
f 90//22 166//22 92//22
f 92//22 166//22 149//22
f 92//66 149//66 93//66
f 93//21 149//21 148//21
f 93//20 148//20 94//20
f 94//20 148//20 147//20
f 94//19 147//19 95//19
f 95//19 147//19 146//19
f 95//18 146//18 251//18
f 251//67 146//67 252//67
f 255//17 256//17 73//17
f 73//17 256//17 131//17
f 73//16 131//16 74//16
f 74//16 131//16 130//16
f 74//15 130//15 11//15
f 11//15 130//15 128//15
f 11//14 128//14 12//14
f 12//14 128//14 127//14
f 12//13 127//13 14//13
f 14//13 127//13 180//13
f 14//12 180//12 16//12
f 16//12 180//12 179//12
f 16//11 179//11 17//11
f 17//11 179//11 177//11
f 17//10 177//10 61//10
f 61//10 177//10 176//10
f 61//9 176//9 257//9
f 257//9 176//9 258//9
f 257//55 258//55 58//55
f 58//55 258//55 233//55
f 58//48 233//48 56//48
f 56//48 233//48 231//48
f 56//47 231//47 54//47
f 54//47 231//47 229//47
f 54//56 229//56 52//56
f 52//56 229//56 227//56
f 52//45 227//45 50//45
f 50//45 227//45 225//45
f 50//57 225//57 48//57
f 48//57 225//57 223//57
f 48//43 223//43 46//43
f 46//43 223//43 221//43
f 46//58 221//58 44//58
f 44//58 221//58 219//58
f 44//40 219//40 259//40
f 259//40 219//40 260//40
f 259//60 260//60 40//60
f 40//60 260//60 215//60
f 40//38 215//38 38//38
f 38//38 215//38 213//38
f 38//36 213//36 36//36
f 36//36 213//36 211//36
f 36//61 211//61 34//61
f 34//61 211//61 209//61
f 34//34 209//34 32//34
f 32//34 209//34 207//34
f 32//62 207//62 30//62
f 30//62 207//62 205//62
f 30//63 205//63 28//63
f 28//63 205//63 203//63
f 28//64 203//64 26//64
f 26//64 203//64 201//64
f 26//65 201//65 261//65
f 261//65 201//65 262//65
f 261//26 262//26 6//26
f 6//26 262//26 198//26
f 6//25 198//25 4//25
f 4//25 198//25 196//25
f 4//24 196//24 10//24
f 10//24 196//24 195//24
f 10//23 195//23 3//23
f 3//23 195//23 193//23
f 3//22 193//22 21//22
f 21//22 193//22 192//22
f 21//21 192//21 69//21
f 69//21 192//21 191//21
f 69//20 191//20 70//20
f 70//20 191//20 125//20
f 70//19 125//19 71//19
f 71//19 125//19 124//19
f 71//18 124//18 255//18
f 255//18 124//18 256//18
