# Blender v2.78 (sub 0) OBJ File: ''
# www.blender.org
mtllib second_rocker_arm.mtl
o second_rocker_arm
v 0.320624 -0.050000 0.100000
v 0.000000 -0.050000 0.100000
v 0.320624 -0.050000 0.000000
v 0.000000 -0.050000 0.000000
v 0.329307 -0.049240 0.000000
v 0.329307 -0.049240 0.100000
v 0.337725 -0.046985 0.000000
v 0.337725 -0.046985 0.100000
v 0.345624 -0.043301 0.000000
v 0.345624 -0.043301 0.100000
v 0.352764 -0.038302 0.000000
v 0.352764 -0.038302 0.100000
v 0.358927 -0.032139 0.000000
v 0.358927 -0.032139 0.100000
v 0.363926 -0.025000 0.000000
v 0.363926 -0.025000 0.100000
v 0.367609 -0.017101 0.000000
v 0.367609 -0.017101 0.100000
v 0.369865 -0.008682 0.000000
v 0.369865 -0.008682 0.100000
v 0.370624 0.000000 0.000000
v 0.370624 0.000000 0.100000
v 0.369865 0.008682 0.000000
v 0.369865 0.008682 0.100000
v 0.367609 0.017101 0.000000
v 0.367609 0.017101 0.100000
v 0.363926 0.025000 0.000000
v 0.363926 0.025000 0.100000
v 0.358927 0.032139 0.000000
v 0.358927 0.032139 0.100000
v 0.352764 0.038302 0.000000
v 0.352764 0.038302 0.100000
v 0.345624 0.043301 0.000000
v 0.345624 0.043301 0.100000
v 0.337725 0.046985 0.000000
v 0.337725 0.046985 0.100000
v 0.329307 0.049240 0.000000
v 0.329307 0.049240 0.100000
v 0.320624 0.050000 0.000000
v 0.320624 0.050000 0.100000
v 0.000000 0.050000 0.100000
v -0.000000 0.050000 0.000000
v -0.025000 -0.000000 0.100000
v -0.025000 -0.000000 0.000000
v -0.024620 0.004341 0.100000
v -0.024620 0.004341 0.000000
v -0.023492 0.008551 0.100000
v -0.023492 0.008551 0.000000
v -0.021651 0.012500 0.100000
v -0.021651 0.012500 0.000000
v -0.019151 0.016070 0.100000
v -0.019151 0.016070 0.000000
v -0.016070 0.019151 0.100000
v -0.016070 0.019151 0.000000
v -0.012500 0.021651 0.100000
v -0.012500 0.021651 0.000000
v -0.008551 0.023492 0.100000
v -0.008551 0.023492 0.000000
v -0.004341 0.024620 0.100000
v -0.004341 0.024620 0.000000
v -0.000000 0.025000 0.100000
v -0.000000 0.025000 0.000000
v 0.004341 0.024620 0.100000
v 0.004341 0.024620 0.000000
v 0.008551 0.023492 0.100000
v 0.008551 0.023492 0.000000
v 0.012500 0.021651 0.100000
v 0.012500 0.021651 0.000000
v 0.016070 0.019151 0.100000
v 0.016070 0.019151 0.000000
v 0.019151 0.016070 0.100000
v 0.019151 0.016070 0.000000
v 0.021651 0.012500 0.100000
v 0.021651 0.012500 0.000000
v 0.023492 0.008551 0.100000
v 0.023492 0.008551 0.000000
v 0.024620 0.004341 0.100000
v 0.024620 0.004341 0.000000
v 0.025000 0.000000 0.100000
v 0.025000 0.000000 0.000000
v 0.024620 -0.004341 0.100000
v 0.024620 -0.004341 0.000000
v 0.023492 -0.008551 0.100000
v 0.023492 -0.008551 0.000000
v 0.021651 -0.012500 0.100000
v 0.021651 -0.012500 0.000000
v 0.019151 -0.016070 0.100000
v 0.019151 -0.016070 0.000000
v 0.016070 -0.019151 0.100000
v 0.016070 -0.019151 0.000000
v 0.012500 -0.021651 0.100000
v 0.012500 -0.021651 0.000000
v 0.008551 -0.023492 0.100000
v 0.008551 -0.023492 0.000000
v 0.004341 -0.024620 0.100000
v 0.004341 -0.024620 0.000000
v 0.000000 -0.025000 0.100000
v 0.000000 -0.025000 0.000000
v -0.004341 -0.024620 0.100000
v -0.004341 -0.024620 0.000000
v -0.008551 -0.023492 0.100000
v -0.008551 -0.023492 0.000000
v -0.012500 -0.021651 0.100000
v -0.012500 -0.021651 0.000000
v -0.016070 -0.019151 0.100000
v -0.016070 -0.019151 0.000000
v -0.019151 -0.016070 0.100000
v -0.019151 -0.016070 0.000000
v -0.021651 -0.012500 0.100000
v -0.021651 -0.012500 0.000000
v -0.023492 -0.008551 0.100000
v -0.023492 -0.008551 0.000000
v -0.024620 -0.004341 0.100000
v -0.024620 -0.004341 0.000000
v 0.295624 -0.000000 0.100000
v 0.295624 -0.000000 0.000000
v 0.296004 0.004341 0.100000
v 0.296004 0.004341 0.000000
v 0.297132 0.008551 0.100000
v 0.297132 0.008551 0.000000
v 0.298974 0.012500 0.100000
v 0.298974 0.012500 0.000000
v 0.301473 0.016070 0.100000
v 0.301473 0.016070 0.000000
v 0.304555 0.019151 0.100000
v 0.304555 0.019151 0.000000
v 0.308124 0.021651 0.100000
v 0.308124 0.021651 0.000000
v 0.312074 0.023492 0.100000
v 0.312074 0.023492 0.000000
v 0.316283 0.024620 0.100000
v 0.316283 0.024620 0.000000
v 0.320624 0.025000 0.100000
v 0.320624 0.025000 0.000000
v 0.324966 0.024620 0.100000
v 0.324966 0.024620 0.000000
v 0.329175 0.023492 0.100000
v 0.329175 0.023492 0.000000
v 0.333124 0.021651 0.100000
v 0.333124 0.021651 0.000000
v 0.336694 0.019151 0.100000
v 0.336694 0.019151 0.000000
v 0.339776 0.016070 0.100000
v 0.339776 0.016070 0.000000
v 0.342275 0.012500 0.100000
v 0.342275 0.012500 0.000000
v 0.344117 0.008551 0.100000
v 0.344117 0.008551 0.000000
v 0.345245 0.004341 0.100000
v 0.345245 0.004341 0.000000
v 0.345624 0.000000 0.100000
v 0.345624 0.000000 0.000000
v 0.345245 -0.004341 0.100000
v 0.345245 -0.004341 0.000000
v 0.344117 -0.008551 0.100000
v 0.344117 -0.008551 0.000000
v 0.342275 -0.012500 0.100000
v 0.342275 -0.012500 0.000000
v 0.339776 -0.016070 0.100000
v 0.339776 -0.016070 0.000000
v 0.336694 -0.019151 0.100000
v 0.336694 -0.019151 0.000000
v 0.333124 -0.021651 0.100000
v 0.333124 -0.021651 0.000000
v 0.329175 -0.023492 0.100000
v 0.329175 -0.023492 0.000000
v 0.324966 -0.024620 0.100000
v 0.324966 -0.024620 0.000000
v 0.320624 -0.025000 0.100000
v 0.320624 -0.025000 0.000000
v 0.316283 -0.024620 0.100000
v 0.316283 -0.024620 0.000000
v 0.312074 -0.023492 0.100000
v 0.312074 -0.023492 0.000000
v 0.308124 -0.021651 0.100000
v 0.308124 -0.021651 0.000000
v 0.304555 -0.019151 0.100000
v 0.304555 -0.019151 0.000000
v 0.301473 -0.016070 0.100000
v 0.301473 -0.016070 0.000000
v 0.298974 -0.012500 0.100000
v 0.298974 -0.012500 0.000000
v 0.297132 -0.008551 0.100000
v 0.297132 -0.008551 0.000000
v 0.296004 -0.004341 0.100000
v 0.296004 -0.004341 0.000000
v -0.000000 0.050000 0.100000
v -0.000000 0.050000 0.000000
v -0.008682 0.049240 0.000000
v -0.008682 0.049240 0.100000
v -0.017101 0.046985 0.000000
v -0.017101 0.046985 0.100000
v -0.025000 0.043301 0.000000
v -0.025000 0.043301 0.100000
v -0.032139 0.038302 0.000000
v -0.032139 0.038302 0.100000
v -0.038302 0.032139 0.000000
v -0.038302 0.032139 0.100000
v -0.043301 0.025000 0.000000
v -0.043301 0.025000 0.100000
v -0.046985 0.017101 0.000000
v -0.046985 0.017101 0.100000
v -0.049240 0.008682 0.000000
v -0.049240 0.008682 0.100000
v -0.050000 -0.000000 0.000000
v -0.050000 -0.000000 0.100000
v -0.049240 -0.008682 0.000000
v -0.049240 -0.008682 0.100000
v -0.046985 -0.017101 0.000000
v -0.046985 -0.017101 0.100000
v -0.043301 -0.025000 0.000000
v -0.043301 -0.025000 0.100000
v -0.038302 -0.032139 0.000000
v -0.038302 -0.032139 0.100000
v -0.032139 -0.038302 0.000000
v -0.032139 -0.038302 0.100000
v -0.025000 -0.043301 0.000000
v -0.025000 -0.043301 0.100000
v -0.017101 -0.046985 0.000000
v -0.017101 -0.046985 0.100000
v -0.008682 -0.049240 0.000000
v -0.008682 -0.049240 0.100000
v 0.295624 0.000000 0.100000
v 0.025000 0.000000 0.100000
v 0.345624 0.000000 0.100000
v -0.025000 0.000000 0.100000
v 0.295624 0.000000 0.000000
v 0.000000 0.050000 0.000000
v -0.025000 0.000000 0.000000
vn 0.0000 -1.0000 0.0000
vn 0.0872 -0.9962 0.0000
vn 0.2588 -0.9659 0.0000
vn 0.4226 -0.9063 0.0000
vn 0.5736 -0.8192 0.0000
vn 0.7071 -0.7071 0.0000
vn 0.8192 -0.5736 0.0000
vn 0.9063 -0.4226 0.0000
vn 0.9659 -0.2588 0.0000
vn 0.9962 -0.0872 0.0000
vn 0.9962 0.0872 0.0000
vn 0.9659 0.2588 0.0000
vn 0.9063 0.4226 0.0000
vn 0.8192 0.5736 0.0000
vn 0.7071 0.7071 0.0000
vn 0.5736 0.8192 0.0000
vn 0.4226 0.9063 0.0000
vn 0.2588 0.9659 0.0000
vn 0.0872 0.9962 0.0000
vn 0.0000 1.0000 0.0000
vn -0.0872 -0.9962 0.0000
vn -0.2588 -0.9659 0.0000
vn -0.4226 -0.9063 0.0000
vn -0.5736 -0.8192 0.0000
vn -0.7071 -0.7071 0.0000
vn -0.8192 -0.5736 0.0000
vn -0.9063 -0.4226 0.0000
vn -0.9659 -0.2588 0.0000
vn -0.9962 -0.0872 0.0000
vn -0.9962 0.0872 0.0000
vn -0.9659 0.2588 0.0000
vn -0.9063 0.4226 0.0000
vn -0.8192 0.5736 0.0000
vn -0.7071 0.7071 0.0000
vn -0.5736 0.8192 0.0000
vn -0.4226 0.9063 0.0000
vn -0.2588 0.9659 0.0000
vn -0.0872 0.9962 0.0000
vn -0.5736 -0.8191 0.0000
vn -0.9962 -0.0871 0.0000
vn -0.9962 0.0871 0.0000
vn -0.5736 0.8191 0.0000
vn 0.0000 0.0000 1.0000
vn 0.0000 0.0000 -1.0000
usemtl None
s off
f 1//1 2//1 3//1
f 3//1 2//1 4//1
f 1//2 3//2 5//2
f 1//2 5//2 6//2
f 6//3 5//3 7//3
f 6//3 7//3 8//3
f 8//4 7//4 9//4
f 8//4 9//4 10//4
f 10//5 9//5 11//5
f 10//5 11//5 12//5
f 12//6 11//6 13//6
f 12//6 13//6 14//6
f 14//7 13//7 15//7
f 14//7 15//7 16//7
f 16//8 15//8 17//8
f 16//8 17//8 18//8
f 18//9 17//9 19//9
f 18//9 19//9 20//9
f 20//10 19//10 21//10
f 20//10 21//10 22//10
f 22//11 21//11 23//11
f 22//11 23//11 24//11
f 24//12 23//12 25//12
f 24//12 25//12 26//12
f 26//13 25//13 27//13
f 26//13 27//13 28//13
f 28//14 27//14 29//14
f 28//14 29//14 30//14
f 30//15 29//15 31//15
f 30//15 31//15 32//15
f 32//16 31//16 33//16
f 32//16 33//16 34//16
f 34//17 33//17 35//17
f 34//17 35//17 36//17
f 36//18 35//18 37//18
f 36//18 37//18 38//18
f 38//19 37//19 39//19
f 38//19 39//19 40//19
f 41//20 40//20 42//20
f 42//20 40//20 39//20
f 43//10 44//10 45//10
f 45//10 44//10 46//10
f 45//9 46//9 47//9
f 47//9 46//9 48//9
f 47//8 48//8 49//8
f 49//8 48//8 50//8
f 49//7 50//7 51//7
f 51//7 50//7 52//7
f 51//6 52//6 53//6
f 53//6 52//6 54//6
f 53//5 54//5 55//5
f 55//5 54//5 56//5
f 55//4 56//4 57//4
f 57//4 56//4 58//4
f 57//3 58//3 59//3
f 59//3 58//3 60//3
f 59//2 60//2 61//2
f 61//2 60//2 62//2
f 61//21 62//21 63//21
f 63//21 62//21 64//21
f 63//22 64//22 65//22
f 65//22 64//22 66//22
f 65//23 66//23 67//23
f 67//23 66//23 68//23
f 67//24 68//24 69//24
f 69//24 68//24 70//24
f 69//25 70//25 71//25
f 71//25 70//25 72//25
f 71//26 72//26 73//26
f 73//26 72//26 74//26
f 73//27 74//27 75//27
f 75//27 74//27 76//27
f 75//28 76//28 77//28
f 77//28 76//28 78//28
f 77//29 78//29 79//29
f 79//29 78//29 80//29
f 79//30 80//30 81//30
f 81//30 80//30 82//30
f 81//31 82//31 83//31
f 83//31 82//31 84//31
f 83//32 84//32 85//32
f 85//32 84//32 86//32
f 85//33 86//33 87//33
f 87//33 86//33 88//33
f 87//34 88//34 89//34
f 89//34 88//34 90//34
f 89//35 90//35 91//35
f 91//35 90//35 92//35
f 91//36 92//36 93//36
f 93//36 92//36 94//36
f 93//37 94//37 95//37
f 95//37 94//37 96//37
f 95//38 96//38 97//38
f 97//38 96//38 98//38
f 97//19 98//19 99//19
f 99//19 98//19 100//19
f 99//18 100//18 101//18
f 101//18 100//18 102//18
f 101//17 102//17 103//17
f 103//17 102//17 104//17
f 103//16 104//16 105//16
f 105//16 104//16 106//16
f 105//15 106//15 107//15
f 107//15 106//15 108//15
f 107//14 108//14 109//14
f 109//14 108//14 110//14
f 109//13 110//13 111//13
f 111//13 110//13 112//13
f 111//12 112//12 113//12
f 113//12 112//12 114//12
f 113//11 114//11 43//11
f 43//11 114//11 44//11
f 115//10 116//10 117//10
f 117//10 116//10 118//10
f 117//9 118//9 119//9
f 119//9 118//9 120//9
f 119//8 120//8 121//8
f 121//8 120//8 122//8
f 121//7 122//7 123//7
f 123//7 122//7 124//7
f 123//6 124//6 125//6
f 125//6 124//6 126//6
f 125//5 126//5 127//5
f 127//5 126//5 128//5
f 127//4 128//4 129//4
f 129//4 128//4 130//4
f 129//3 130//3 131//3
f 131//3 130//3 132//3
f 131//2 132//2 133//2
f 133//2 132//2 134//2
f 133//21 134//21 135//21
f 135//21 134//21 136//21
f 135//22 136//22 137//22
f 137//22 136//22 138//22
f 137//23 138//23 139//23
f 139//23 138//23 140//23
f 139//24 140//24 141//24
f 141//39 140//39 142//39
f 141//25 142//25 143//25
f 143//25 142//25 144//25
f 143//26 144//26 145//26
f 145//26 144//26 146//26
f 145//27 146//27 147//27
f 147//27 146//27 148//27
f 147//28 148//28 149//28
f 149//28 148//28 150//28
f 149//29 150//29 151//29
f 151//40 150//40 152//40
f 151//41 152//41 153//41
f 153//30 152//30 154//30
f 153//31 154//31 155//31
f 155//31 154//31 156//31
f 155//32 156//32 157//32
f 157//32 156//32 158//32
f 157//33 158//33 159//33
f 159//33 158//33 160//33
f 159//34 160//34 161//34
f 161//34 160//34 162//34
f 161//42 162//42 163//42
f 163//35 162//35 164//35
f 163//36 164//36 165//36
f 165//36 164//36 166//36
f 165//37 166//37 167//37
f 167//37 166//37 168//37
f 167//38 168//38 169//38
f 169//38 168//38 170//38
f 169//19 170//19 171//19
f 171//19 170//19 172//19
f 171//18 172//18 173//18
f 173//18 172//18 174//18
f 173//17 174//17 175//17
f 175//17 174//17 176//17
f 175//16 176//16 177//16
f 177//16 176//16 178//16
f 177//15 178//15 179//15
f 179//15 178//15 180//15
f 179//14 180//14 181//14
f 181//14 180//14 182//14
f 181//13 182//13 183//13
f 183//13 182//13 184//13
f 183//12 184//12 185//12
f 185//12 184//12 186//12
f 185//11 186//11 115//11
f 115//11 186//11 116//11
f 187//38 188//38 189//38
f 187//38 189//38 190//38
f 190//37 189//37 191//37
f 190//37 191//37 192//37
f 192//36 191//36 193//36
f 192//36 193//36 194//36
f 194//35 193//35 195//35
f 194//35 195//35 196//35
f 196//34 195//34 197//34
f 196//34 197//34 198//34
f 198//33 197//33 199//33
f 198//33 199//33 200//33
f 200//32 199//32 201//32
f 200//32 201//32 202//32
f 202//31 201//31 203//31
f 202//31 203//31 204//31
f 204//30 203//30 205//30
f 204//30 205//30 206//30
f 206//29 205//29 207//29
f 206//29 207//29 208//29
f 208//28 207//28 209//28
f 208//28 209//28 210//28
f 210//27 209//27 211//27
f 210//27 211//27 212//27
f 212//26 211//26 213//26
f 212//26 213//26 214//26
f 214//25 213//25 215//25
f 214//25 215//25 216//25
f 216//24 215//24 217//24
f 216//24 217//24 218//24
f 218//23 217//23 219//23
f 218//23 219//23 220//23
f 220//22 219//22 221//22
f 220//22 221//22 222//22
f 222//21 221//21 4//21
f 222//21 4//21 2//21
f 175//43 63//43 173//43
f 173//43 63//43 65//43
f 173//43 65//43 171//43
f 65//43 67//43 171//43
f 171//43 67//43 69//43
f 171//43 69//43 71//43
f 71//43 73//43 171//43
f 171//43 73//43 75//43
f 171//43 75//43 77//43
f 183//43 185//43 187//43
f 187//43 185//43 223//43
f 223//43 117//43 187//43
f 187//43 117//43 119//43
f 187//43 119//43 121//43
f 85//43 87//43 1//43
f 1//43 87//43 89//43
f 1//43 89//43 2//43
f 2//43 89//43 91//43
f 2//43 91//43 93//43
f 77//43 224//43 171//43
f 171//43 224//43 81//43
f 171//43 81//43 1//43
f 1//43 81//43 83//43
f 1//43 83//43 85//43
f 121//43 123//43 187//43
f 187//43 123//43 125//43
f 187//43 125//43 40//43
f 40//43 125//43 127//43
f 40//43 127//43 129//43
f 129//43 131//43 40//43
f 40//43 131//43 133//43
f 40//43 133//43 38//43
f 38//43 133//43 135//43
f 38//43 135//43 36//43
f 36//43 135//43 137//43
f 36//43 137//43 34//43
f 34//43 137//43 139//43
f 34//43 139//43 32//43
f 32//43 139//43 141//43
f 32//43 141//43 30//43
f 30//43 141//43 143//43
f 30//43 143//43 28//43
f 28//43 143//43 145//43
f 28//43 145//43 26//43
f 26//43 145//43 147//43
f 26//43 147//43 24//43
f 24//43 147//43 149//43
f 24//43 149//43 22//43
f 22//43 149//43 225//43
f 22//43 225//43 20//43
f 20//43 225//43 153//43
f 20//43 153//43 18//43
f 18//43 153//43 155//43
f 18//43 155//43 16//43
f 16//43 155//43 157//43
f 16//43 157//43 14//43
f 14//43 157//43 159//43
f 14//43 159//43 12//43
f 12//43 159//43 161//43
f 12//43 161//43 10//43
f 10//43 161//43 163//43
f 10//43 163//43 8//43
f 8//43 163//43 165//43
f 8//43 165//43 6//43
f 6//43 165//43 167//43
f 6//43 167//43 1//43
f 1//43 167//43 169//43
f 1//43 169//43 171//43
f 175//43 177//43 63//43
f 63//43 177//43 179//43
f 63//43 179//43 187//43
f 187//43 179//43 181//43
f 187//43 181//43 183//43
f 93//43 95//43 2//43
f 2//43 95//43 97//43
f 2//43 97//43 222//43
f 222//43 97//43 99//43
f 222//43 99//43 220//43
f 220//43 99//43 101//43
f 220//43 101//43 218//43
f 218//43 101//43 103//43
f 218//43 103//43 216//43
f 216//43 103//43 105//43
f 216//43 105//43 214//43
f 214//43 105//43 107//43
f 214//43 107//43 212//43
f 212//43 107//43 109//43
f 212//43 109//43 210//43
f 210//43 109//43 111//43
f 210//43 111//43 208//43
f 208//43 111//43 113//43
f 208//43 113//43 206//43
f 206//43 113//43 226//43
f 206//43 226//43 204//43
f 204//43 226//43 45//43
f 204//43 45//43 202//43
f 202//43 45//43 47//43
f 202//43 47//43 200//43
f 200//43 47//43 49//43
f 200//43 49//43 198//43
f 198//43 49//43 51//43
f 198//43 51//43 196//43
f 196//43 51//43 53//43
f 196//43 53//43 194//43
f 194//43 53//43 55//43
f 194//43 55//43 192//43
f 192//43 55//43 57//43
f 192//43 57//43 190//43
f 190//43 57//43 59//43
f 190//43 59//43 187//43
f 187//43 59//43 61//43
f 187//43 61//43 63//43
f 88//44 86//44 186//44
f 182//44 4//44 184//44
f 184//44 4//44 186//44
f 182//44 180//44 4//44
f 4//44 180//44 178//44
f 4//44 178//44 3//44
f 3//44 178//44 176//44
f 3//44 176//44 174//44
f 86//44 84//44 186//44
f 186//44 84//44 82//44
f 186//44 82//44 227//44
f 96//44 94//44 4//44
f 4//44 94//44 92//44
f 4//44 92//44 186//44
f 186//44 92//44 90//44
f 186//44 90//44 88//44
f 124//44 122//44 228//44
f 228//44 122//44 120//44
f 228//44 120//44 118//44
f 74//44 72//44 118//44
f 118//44 72//44 70//44
f 118//44 70//44 228//44
f 228//44 70//44 68//44
f 228//44 68//44 66//44
f 82//44 80//44 227//44
f 227//44 80//44 78//44
f 227//44 78//44 118//44
f 118//44 78//44 76//44
f 118//44 76//44 74//44
f 174//44 172//44 3//44
f 3//44 172//44 170//44
f 3//44 170//44 5//44
f 5//44 170//44 168//44
f 5//44 168//44 7//44
f 7//44 168//44 166//44
f 7//44 166//44 9//44
f 9//44 166//44 164//44
f 9//44 164//44 11//44
f 11//44 164//44 162//44
f 11//44 162//44 13//44
f 13//44 162//44 160//44
f 13//44 160//44 15//44
f 15//44 160//44 158//44
f 15//44 158//44 17//44
f 17//44 158//44 156//44
f 17//44 156//44 19//44
f 19//44 156//44 154//44
f 19//44 154//44 21//44
f 21//44 154//44 152//44
f 21//44 152//44 23//44
f 23//44 152//44 150//44
f 23//44 150//44 25//44
f 25//44 150//44 148//44
f 25//44 148//44 27//44
f 27//44 148//44 146//44
f 27//44 146//44 29//44
f 29//44 146//44 144//44
f 29//44 144//44 31//44
f 31//44 144//44 142//44
f 31//44 142//44 33//44
f 33//44 142//44 140//44
f 33//44 140//44 35//44
f 35//44 140//44 138//44
f 35//44 138//44 37//44
f 37//44 138//44 136//44
f 37//44 136//44 39//44
f 39//44 136//44 134//44
f 39//44 134//44 132//44
f 132//44 130//44 39//44
f 39//44 130//44 128//44
f 39//44 128//44 228//44
f 228//44 128//44 126//44
f 228//44 126//44 124//44
f 66//44 64//44 228//44
f 228//44 64//44 62//44
f 228//44 62//44 189//44
f 189//44 62//44 60//44
f 189//44 60//44 191//44
f 191//44 60//44 58//44
f 191//44 58//44 193//44
f 193//44 58//44 56//44
f 193//44 56//44 195//44
f 195//44 56//44 54//44
f 195//44 54//44 197//44
f 197//44 54//44 52//44
f 197//44 52//44 199//44
f 199//44 52//44 50//44
f 199//44 50//44 201//44
f 201//44 50//44 48//44
f 201//44 48//44 203//44
f 203//44 48//44 46//44
f 203//44 46//44 205//44
f 205//44 46//44 229//44
f 205//44 229//44 207//44
f 207//44 229//44 114//44
f 207//44 114//44 209//44
f 209//44 114//44 112//44
f 209//44 112//44 211//44
f 211//44 112//44 110//44
f 211//44 110//44 213//44
f 213//44 110//44 108//44
f 213//44 108//44 215//44
f 215//44 108//44 106//44
f 215//44 106//44 217//44
f 217//44 106//44 104//44
f 217//44 104//44 219//44
f 219//44 104//44 102//44
f 219//44 102//44 221//44
f 221//44 102//44 100//44
f 221//44 100//44 4//44
f 4//44 100//44 98//44
f 4//44 98//44 96//44
